# xmcd
#
# Track frame offsets:
#	150
#	22725
#	68915
#	88800
#	105740
#	119040
#	155738
#	186825
#	194302
#	200240
#
# Disc length: 3180 seconds
#
# Revision: 1
# Processed by: cddbd v1.5.1PL2 Copyright (c) Steve Scherf et al.
# Submitted via: EasyCDDAExtractor 8.0.2.1
#
DISCID=910c6a0a
DTITLE=Rainbow - St David's Hall Cardiff 14-09-83 Disc 2
DYEAR=1983
DGENRE=Hard Rock
TTITLE0=Death Alley Driver
TTITLE1=Catch The Rainbow
TTITLE2=Drinking With The Devil
TTITLE3=Power
TTITLE4=Blues
TTITLE5=Stargazer/Stranded
TTITLE6=All Night Long
TTITLE7=Maybe Next Time
TTITLE8=Since You've Been Gone
TTITLE9=Long Live Rock N' Roll
EXTD=
EXTT0=
EXTT1=
EXTT2=
EXTT3=
EXTT4=
EXTT5=
EXTT6=
EXTT7=
EXTT8=
EXTT9=
PLAYORDER=
